<?xml version="1.0" encoding="utf-8"?>
<!-- Generator: Adobe Illustrator 22.1.0, SVG Export Plug-In . SVG Version: 6.00 Build 0)  -->
<svg version="1.1" id="Layer_1" xmlns="http://www.w3.org/2000/svg" xmlns:xlink="http://www.w3.org/1999/xlink" x="0px" y="0px"
	 viewBox="0 0 630 110" style="enable-background:new 0 0 630 110;" xml:space="preserve">
<style type="text/css">
	.st0{fill:#3ABE6B;}
</style>
<g>
	<path class="st0" d="M129.2,7.4c4.3,0.2,9.7-0.4,15,0.4c12.4,1.8,22,12.3,22.9,24.8c0.6,8.3-2.2,15.3-7.8,21.3
		c-0.9,0.9-0.9,1.4,0,2.4c5.2,5.2,7.9,11.7,7.9,19c0,15.2-11.5,26-24.2,27.2c-7.5,0.7-15,0.1-22.6,0.3c-2,0-3.9-0.1-5.9,0
		c-1.4,0.1-2.1-0.4-1.9-1.9c0-0.3,0-0.7,0-1c0-29.8,0-59.6,0-89.5c0-0.3,0-0.7,0-1c-0.2-1.5,0.4-2,1.9-2
		C119.1,7.4,123.7,7.4,129.2,7.4z M123.8,75.3c0,3.9,0,7.7,0,11.6c0,1.4,0.5,1.9,1.9,1.9c4.7-0.1,9.5,0,14.2,0
		c2.9,0,5.7-0.7,8.4-1.9c6.8-3.3,9.7-10.6,6.5-16.7c-2.6-5-7-7.4-12.4-8c-5.7-0.7-11.4-0.2-17.2-0.3c-1.2,0-1.5,0.5-1.5,1.6
		C123.8,67.4,123.8,71.4,123.8,75.3z M123.8,34.6c0,3.9,0,7.7,0,11.6c0,1.4,0.5,1.8,1.8,1.8c5.2-0.1,10.3,0,15.5-0.1
		c3.6-0.1,6.9-1.2,9.7-3.4c4-3.2,6.3-7.2,4.9-12.4c-1.6-6.4-6.3-9.5-12.4-10.5c-6-1-12.2-0.2-18.3-0.4c-1.2,0-1.3,0.7-1.3,1.6
		C123.8,26.8,123.8,30.7,123.8,34.6z"/>
	<path class="st0" d="M69.5,55c0,14.8,0,29.6,0,44.3c0,0.5,0,1,0,1.5c0,0.5,0.1,1.1-0.4,1.3c-0.4,0.2-0.8-0.3-1.1-0.5
		c-3.5-2.6-7-5.3-10.4-7.9C46.2,85,35,76.4,23.7,67.9C18.5,63.9,13.4,60,8.2,56.1c-1.2-0.9-1.1-1.4,0-2.2
		C28.1,38.7,48,23.6,67.9,8.5c0.4-0.3,0.8-1,1.3-0.7c0.5,0.3,0.3,1,0.3,1.5C69.5,24.5,69.5,39.7,69.5,55z"/>
	<path class="st0" d="M75.4,55c0-15,0-30.1,0-45.1c0-2.5,0-2.5,2.4-2.5c7.4,0,14.8,0,22.2,0c2,0,2.1,0.1,2.1,2.1
		c0,30.3,0,60.6,0,90.9c0,2.1-0.1,2.2-2.3,2.2c-7.4,0-14.8,0-22.2,0c-2.2,0-2.3-0.1-2.3-2.4C75.4,85.2,75.4,70.1,75.4,55z"/>
	<path class="st0" d="M205,102.6c-8.3,0-16.7,0-25,0c-2.1,0-2.2-0.1-2.2-2.2c0-8.5,0-16.9,0-25.4c0.1-13.8,10.7-25.5,24.4-26.8
		c3.3-0.3,6.7-0.1,9.8-1.5c3.9-1.7,7-4.2,8.5-8.2c1.7-4.5,0.6-8.5-2.5-12c-6.7-7.5-20.1-7.1-26.5,0.6c-1.4,1.7-2.4,3.7-2.5,5.9
		c-0.1,1.4-0.7,1.8-2,1.7c-2.3,0-4.6,0-6.9,0c-2.3,0-2.6-0.3-2.3-2.6c1-8.8,5.1-15.8,12.6-20.6c16.7-10.7,39-0.3,41.7,19.3
		c2,14.9-8.7,28.8-23.6,30.7c-3,0.4-6,0.1-8.9,1c-4.1,1.2-7.3,3.5-9.4,7.3c-0.8,1.6-1.3,3.2-1.3,5c0,3.9,0.1,7.9,0,11.8
		c0,1.6,0.5,2,2.1,2c13,0,26,0,38.9,0c2.5,0,2.5,0,2.5,2.6c0,3,0,6,0,9c0,2.1-0.1,2.2-2.2,2.2C221.8,102.6,213.4,102.6,205,102.6z"
		/>
	<path class="st0" d="M308,55c0-6.9,0-13.7,0-20.6c0-14,11.1-25.9,25.1-27c14.1-1.1,26.8,8.8,29.1,22.8c0.8,4.7,0.8,4.7-4,4.7
		c-1.7,0-3.4,0-5.1,0c-0.9,0-1.5-0.3-1.7-1.3c-1.2-9.2-10.8-13.2-18.5-12.2c-4.7,0.6-8.7,2.5-11.6,6.4c-1.5,2-2.3,4.2-2.3,6.7
		c0,13.7,0,27.4,0,41.1c0,5,2.7,8.4,6.7,10.9c2.9,1.8,6.1,2.5,9.4,2.5c4.8,0.1,9.6,0,14.4,0c1.5,0,1.9-0.5,1.9-1.9
		c-0.1-3.2-0.1-6.4,0-9.6c0-1.3-0.4-1.9-1.8-1.8c-2.1,0.1-4.1,0-6.2,0c-1.1,0-1.6-0.4-1.6-1.6c0-3.6,0-7.2,0-10.8
		c0-1,0.4-1.5,1.5-1.5c5.8,0,11.7,0,17.5,0c1.2,0,1.5,0.5,1.5,1.6c0,12.6,0,25.2,0,37.8c0,1-0.3,1.6-1.4,1.6
		c-9.6-0.1-19.2,0.5-28.8-0.3c-12.3-1.1-22.2-10.7-24-23c-0.5-3.2-0.2-6.4-0.3-9.6C307.9,64.8,308,59.9,308,55z"/>
	<path class="st0" d="M438.2,68.5c0-10.6,0-21.2,0-31.7c0-2.2,0-2.2,2.2-2.2c10.7,0,21.5,0,32.2,0c10.9,0,20,9.1,20,20.1
		c0.1,15.3,0,30.6,0.1,46c0,1.7-0.6,2.2-2.2,2.1c-2.1-0.1-4.1,0-6.2,0c-2.6,0-2.6,0-2.6-2.5c0-14.4,0-28.8,0-43.2
		c0-5.5-3.8-9-9.4-8.6c-1.1,0.1-1.3,0.7-1.3,1.6c0,2.6,0,5.2,0,7.8c0,14.2,0,28.3,0,42.5c0,2.3,0,2.3-2.2,2.3c-2.2,0-4.5,0-6.7,0
		c-2.1,0-2.2-0.1-2.2-2.3c0-14.5,0-29,0-43.5c0-2.2-0.1-4.5,0-6.7c0-1.3-0.4-1.9-1.8-1.8c-2.3,0.1-4.6,0.1-6.9,0
		c-1.5-0.1-1.9,0.5-1.9,1.9c0,7.9,0,15.8,0,23.7c0,8.8,0,17.6,0,26.3c0,2.2-0.1,2.3-2.3,2.3c-2.2,0-4.4,0-6.5,0
		c-2.3,0-2.3,0-2.3-2.3C438.2,89.7,438.2,79.1,438.2,68.5z"/>
	<path class="st0" d="M427.5,80.2c0,6.8,0,13.5,0,20.3c0,2-0.1,2.1-2.1,2.1c-10.7,0-21.4,0.1-32.1,0c-10.7-0.1-19.8-8.7-20.3-19.1
		c-0.5-11.2,7.2-20.6,18.1-21.7c3.8-0.4,7.7-0.1,11.6-0.1c4,0,8.1,0,12.1,0c1.4,0,1.7-0.4,1.4-1.7c-1-5-4.1-8.1-8.5-10.1
		c-2.3-1-4.8-1.5-7.3-1.5c-4.9,0-9.8,0-14.7,0c-1.5,0-2-0.4-2-2c0.1-3.4,0-6.9,0-10.3c0-0.8,0.1-1.6,1.2-1.6
		c6.5,0.1,13.1-0.6,19.6,0.3c12.8,1.8,22.7,13.3,22.8,26.2C427.5,67.4,427.5,73.8,427.5,80.2C427.5,80.2,427.5,80.2,427.5,80.2z
		 M403.8,75.5c-3.4,0-6.9,0-10.3,0c-0.1,0-0.2,0-0.3,0c-2.5,0.1-4.9,0.7-6.8,2.4c-3,2.5-2.8,6.5,0.3,8.8c2,1.5,4.3,2.1,6.8,2.1
		c7.2,0.1,14.4,0,21.6,0c1.2,0,1.6-0.5,1.6-1.6c0-3.3-0.1-6.6,0-10c0-1.4-0.6-1.8-1.9-1.7C411.1,75.5,407.4,75.5,403.8,75.5z"/>
	<path class="st0" d="M536,75.5c-6.5,0-13,0-19.5,0c-2.1,0-2.5,0.4-1.9,2.5c1.3,4.8,4.6,7.7,9,9.5c2.3,0.9,4.7,1.3,7.2,1.3
		c4.7,0,9.4,0,14.1,0c1.5,0,2,0.4,2,1.9c-0.1,3.4-0.1,6.9,0,10.3c0,1.1-0.4,1.6-1.5,1.6c-6-0.1-12,0.3-18-0.3
		c-11.8-1.1-22-10.8-23.8-22.5c-0.7-4.4-0.3-8.8-0.3-13.2c0-3-0.2-6,0.2-9c2-13,13.2-23,26-23.1c14-0.2,25.3,9,27.8,22.4
		c0.7,4,0.3,8.1,0.4,12.1c0,1.5-0.1,2.9,0,4.4c0.1,1.6-0.5,2.1-2,2.1C549.1,75.4,542.6,75.5,536,75.5z M530.7,61.7c4.7,0,9.4,0,14,0
		c2.1,0,2.1,0,1.8-2c-0.6-3.1-2.2-5.7-4.7-7.6c-6.4-4.6-13.2-5-20.2-1.6c-3.6,1.8-6.1,4.7-7,8.8c-0.4,1.9-0.1,2.3,1.9,2.3
		C521.2,61.7,525.9,61.7,530.7,61.7z"/>
	<path class="st0" d="M253.7,64.4c0-5.3-0.1-9.7,0-14.1c0-1.5-0.4-2.2-2-2.1c-2.4,0.1-4.8,0-7.2,0c-1.2,0-1.6-0.5-1.6-1.7
		c0-3.5,0-7.1,0-10.6c0-1.1,0.4-1.6,1.6-1.6c2.3,0,4.6,0,6.9,0c2.4,0,2.4,0,2.4-2.3c0-7.5,0-15,0-22.6c0-2.2,0-2.3,2.3-2.3
		c2.1,0,4.3,0,6.4,0c2.5,0,2.5,0,2.5,2.4c0,7.5,0,14.9,0,22.4c0,2.3,0,2.3,2.4,2.3c5.8,0,11.6,0,17.3,0c1.5,0,2,0.5,2,2
		c-0.1,3.3-0.1,6.5,0,9.8c0,1.5-0.5,2.1-2,2.1c-5.7-0.1-11.4,0-17.2,0c-2.5,0-2.5,0-2.5,2.6c0,7.7,0,15.5,0,23.2
		c0,6.5,3.2,11.2,9.4,13.4c2.3,0.8,4.6,1.2,7,1.2c4.7,0,9.4,0.1,14.1,0c1.5,0,2,0.5,2,2c-0.1,3.4-0.1,6.8,0,10.1
		c0,1.1-0.3,1.8-1.6,1.7c-6-0.1-12.1,0.3-18.1-0.3c-11.7-1.1-22.2-11.3-23.6-22.9C253.3,74.2,253.9,68.8,253.7,64.4z"/>
	<path class="st0" d="M595.6,102.6c-8.3,0-16.7,0-25,0c-2.1,0-2.2-0.1-2.2-2.2c0-3.3,0-6.5,0-9.8c0-1.3,0.5-1.8,1.8-1.8
		c16.9,0,33.9,0,50.8,0c1.3,0,1.8,0.5,1.8,1.8c-0.1,3.3-0.1,6.7,0,10c0,1.6-0.5,2.1-2.1,2.1C612.4,102.6,604,102.6,595.6,102.6z"/>
</g>
</svg>
